<!DOCTYPE svg PUBLIC "-//W3C//DTD SVG 1.1//EN" "http://www.w3.org/Graphics/SVG/1.1/DTD/svg11.dtd">
<!-- Uploaded to: SVG Repo, www.svgrepo.com, Transformed by: SVG Repo Mixer Tools -->
<svg fill="#33658A" height="800px" width="800px" version="1.1" id="Capa_1" xmlns="http://www.w3.org/2000/svg" xmlns:xlink="http://www.w3.org/1999/xlink" viewBox="-3.6 -3.6 67.22 67.22" xml:space="preserve" stroke="#33658A" stroke-width="2.100525" transform="rotate(0)matrix(1, 0, 0, 1, 0, 0)">
<g id="SVGRepo_bgCarrier" stroke-width="0"/>
<g id="SVGRepo_tracerCarrier" stroke-linecap="round" stroke-linejoin="round" stroke="#CCCCCC" stroke-width="0.24006000000000002"/>
<g id="SVGRepo_iconCarrier"> <g> <path d="M42.007,0h-24c-9.925,0-18,8.075-18,18v14c0,9.59,7.538,17.452,17,17.973v8.344c0,0.688,0.411,1.304,1.047,1.568 c0.211,0.087,0.433,0.13,0.652,0.13c0.44,0,0.873-0.173,1.198-0.498l1.876-1.876C26.708,52.713,33.259,50,40.227,50h1.781 c9.925,0,18-8.075,18-18V18C60.007,8.075,51.932,0,42.007,0z M58.007,32c0,8.822-7.178,16-16,16h-1.781 c-7.502,0-14.555,2.921-19.86,8.226l-1.359,1.359V49v-1v-4c0-0.552-0.448-1-1-1s-1,0.448-1,1v3.949c-8.356-0.52-15-7.465-15-15.949 V18c0-8.822,7.178-16,16-16h24c8.822,0,16,7.178,16,16V32z"/> <path d="M17.007,19.015h14c0.552,0,1-0.448,1-1s-0.448-1-1-1h-14c-0.552,0-1,0.448-1,1S16.455,19.015,17.007,19.015z"/> <path d="M44.007,25.015h-27c-0.552,0-1,0.448-1,1s0.448,1,1,1h27c0.552,0,1-0.448,1-1S44.56,25.015,44.007,25.015z"/> <path d="M44.007,33.015h-27c-0.552,0-1,0.448-1,1s0.448,1,1,1h27c0.552,0,1-0.448,1-1S44.56,33.015,44.007,33.015z"/> </g> </g>
</svg>